<svg xmlns="http://www.w3.org/2000/svg" xmlns:xlink="http://www.w3.org/1999/xlink" width="500" zoomAndPan="magnify" viewBox="0 0 375 374.999991" height="500" preserveAspectRatio="xMidYMid meet" version="1.2"><defs><clipPath id="df07cdcd27"><path d="M 11.425781 11.425781 L 363.925781 11.425781 L 363.925781 363.925781 L 11.425781 363.925781 Z M 11.425781 11.425781 "/></clipPath></defs><g id="e62df0bcef"><rect x="0" width="375" y="0" height="374.999991" style="fill:#ffffff;fill-opacity:1;stroke:none;"/><rect x="0" width="375" y="0" height="374.999991" style="fill:#ffffff;fill-opacity:1;stroke:none;"/><g clip-rule="nonzero" clip-path="url(#df07cdcd27)"><path style=" stroke:none;fill-rule:nonzero;fill:#0d084d;fill-opacity:1;" d="M 51.667969 11.425781 L 323.328125 11.425781 C 324.644531 11.425781 325.960938 11.488281 327.273438 11.617188 C 328.582031 11.746094 329.886719 11.941406 331.179688 12.199219 C 332.472656 12.453125 333.75 12.773438 335.007812 13.15625 C 336.269531 13.539062 337.511719 13.984375 338.726562 14.488281 C 339.945312 14.992188 341.136719 15.554688 342.296875 16.175781 C 343.460938 16.796875 344.589844 17.472656 345.6875 18.207031 C 346.78125 18.9375 347.839844 19.722656 348.859375 20.558594 C 349.878906 21.394531 350.851562 22.28125 351.785156 23.210938 C 352.71875 24.144531 353.601562 25.121094 354.4375 26.136719 C 355.273438 27.15625 356.058594 28.214844 356.789062 29.308594 C 357.523438 30.40625 358.199219 31.535156 358.820312 32.699219 C 359.441406 33.859375 360.003906 35.050781 360.507812 36.269531 C 361.011719 37.484375 361.457031 38.726562 361.839844 39.988281 C 362.222656 41.25 362.542969 42.527344 362.800781 43.816406 C 363.054688 45.109375 363.25 46.414062 363.378906 47.726562 C 363.507812 49.035156 363.574219 50.351562 363.574219 51.667969 L 363.574219 323.328125 C 363.574219 324.644531 363.507812 325.960938 363.378906 327.273438 C 363.25 328.582031 363.054688 329.886719 362.800781 331.179688 C 362.542969 332.472656 362.222656 333.75 361.839844 335.007812 C 361.457031 336.269531 361.011719 337.511719 360.507812 338.726562 C 360.003906 339.945312 359.441406 341.136719 358.820312 342.296875 C 358.199219 343.460938 357.523438 344.589844 356.789062 345.6875 C 356.058594 346.78125 355.273438 347.839844 354.4375 348.859375 C 353.601562 349.878906 352.71875 350.851562 351.785156 351.785156 C 350.851562 352.71875 349.878906 353.601562 348.859375 354.4375 C 347.839844 355.273438 346.78125 356.058594 345.6875 356.789062 C 344.589844 357.523438 343.460938 358.199219 342.296875 358.820312 C 341.136719 359.441406 339.945312 360.003906 338.726562 360.507812 C 337.511719 361.011719 336.269531 361.457031 335.007812 361.839844 C 333.75 362.222656 332.472656 362.542969 331.179688 362.800781 C 329.886719 363.054688 328.582031 363.25 327.273438 363.378906 C 325.960938 363.507812 324.644531 363.574219 323.328125 363.574219 L 51.667969 363.574219 C 50.351562 363.574219 49.035156 363.507812 47.726562 363.378906 C 46.414062 363.25 45.109375 363.054688 43.816406 362.800781 C 42.527344 362.542969 41.25 362.222656 39.988281 361.839844 C 38.726562 361.457031 37.484375 361.011719 36.269531 360.507812 C 35.050781 360.003906 33.859375 359.441406 32.699219 358.820312 C 31.535156 358.199219 30.40625 357.523438 29.308594 356.789062 C 28.214844 356.058594 27.15625 355.273438 26.136719 354.4375 C 25.121094 353.601562 24.144531 352.71875 23.210938 351.785156 C 22.28125 350.851562 21.394531 349.878906 20.558594 348.859375 C 19.722656 347.839844 18.9375 346.78125 18.207031 345.6875 C 17.472656 344.589844 16.796875 343.460938 16.175781 342.296875 C 15.554688 341.136719 14.992188 339.945312 14.488281 338.726562 C 13.984375 337.511719 13.539062 336.269531 13.15625 335.007812 C 12.773438 333.75 12.453125 332.472656 12.199219 331.179688 C 11.941406 329.886719 11.746094 328.582031 11.617188 327.273438 C 11.488281 325.960938 11.425781 324.644531 11.425781 323.328125 L 11.425781 51.667969 C 11.425781 50.351562 11.488281 49.035156 11.617188 47.726562 C 11.746094 46.414062 11.941406 45.109375 12.199219 43.816406 C 12.453125 42.527344 12.773438 41.25 13.15625 39.988281 C 13.539062 38.726562 13.984375 37.484375 14.488281 36.269531 C 14.992188 35.050781 15.554688 33.859375 16.175781 32.699219 C 16.796875 31.535156 17.472656 30.40625 18.207031 29.308594 C 18.9375 28.214844 19.722656 27.15625 20.558594 26.136719 C 21.394531 25.121094 22.28125 24.144531 23.210938 23.210938 C 24.144531 22.28125 25.121094 21.394531 26.136719 20.558594 C 27.15625 19.722656 28.214844 18.9375 29.308594 18.207031 C 30.40625 17.472656 31.535156 16.796875 32.699219 16.175781 C 33.859375 15.554688 35.050781 14.992188 36.269531 14.488281 C 37.484375 13.984375 38.726562 13.539062 39.988281 13.15625 C 41.25 12.773438 42.527344 12.453125 43.816406 12.199219 C 45.109375 11.941406 46.414062 11.746094 47.726562 11.617188 C 49.035156 11.488281 50.351562 11.425781 51.667969 11.425781 Z M 51.667969 11.425781 "/></g><path style=" stroke:none;fill-rule:nonzero;fill:#ffffff;fill-opacity:1;" d="M 321.945312 106.722656 L 321.945312 119.773438 C 321.945312 121.613281 321.53125 123.355469 320.703125 125 L 320.527344 125.347656 L 251.210938 262.882812 L 246.792969 271.652344 C 246.207031 272.8125 245.476562 273.867188 244.601562 274.824219 C 243.722656 275.78125 242.730469 276.597656 241.628906 277.28125 C 240.523438 277.960938 239.347656 278.476562 238.097656 278.832031 C 236.847656 279.183594 235.574219 279.363281 234.277344 279.363281 C 232.980469 279.363281 231.707031 279.183594 230.457031 278.832031 C 229.210938 278.476562 228.035156 277.960938 226.929688 277.28125 C 225.824219 276.597656 224.832031 275.78125 223.957031 274.824219 C 223.078125 273.867188 222.347656 272.8125 221.765625 271.652344 L 217.34375 262.882812 L 191.6875 211.96875 L 208.496094 178.121094 L 231.9375 224.632812 C 232.160156 225.078125 232.480469 225.429688 232.902344 225.6875 C 233.328125 225.949219 233.785156 226.078125 234.28125 226.078125 C 234.777344 226.078125 235.234375 225.949219 235.660156 225.6875 C 236.082031 225.429688 236.402344 225.078125 236.625 224.632812 L 284.746094 129.15625 C 284.847656 128.953125 284.921875 128.746094 284.96875 128.527344 C 285.015625 128.308594 285.035156 128.085938 285.023438 127.859375 C 285.015625 127.636719 284.976562 127.417969 284.910156 127.203125 C 284.84375 126.988281 284.753906 126.785156 284.636719 126.597656 C 284.519531 126.40625 284.378906 126.230469 284.21875 126.078125 C 284.054688 125.921875 283.875 125.789062 283.679688 125.679688 C 283.484375 125.570312 283.277344 125.488281 283.0625 125.429688 C 282.84375 125.375 282.625 125.347656 282.398438 125.347656 L 235.804688 125.347656 L 250.195312 95.105469 L 310.328125 95.105469 C 311.089844 95.105469 311.847656 95.179688 312.59375 95.328125 C 313.34375 95.476562 314.070312 95.695312 314.773438 95.988281 C 315.476562 96.28125 316.148438 96.636719 316.78125 97.0625 C 317.417969 97.484375 318.003906 97.96875 318.542969 98.507812 C 319.082031 99.046875 319.5625 99.632812 319.988281 100.265625 C 320.410156 100.902344 320.769531 101.570312 321.0625 102.277344 C 321.351562 102.980469 321.574219 103.707031 321.722656 104.453125 C 321.871094 105.203125 321.945312 105.957031 321.945312 106.722656 Z M 321.945312 106.722656 "/><path style=" stroke:none;fill-rule:nonzero;fill:#ffffff;fill-opacity:1;" d="M 217.375 95.105469 C 215.785156 95.105469 214.222656 95.320312 212.695312 95.753906 C 211.164062 96.1875 209.722656 96.820312 208.371094 97.65625 C 207.015625 98.488281 205.800781 99.492188 204.726562 100.664062 C 203.648438 101.832031 202.753906 103.128906 202.039062 104.546875 L 191.558594 125.347656 L 186.726562 134.929688 L 181.894531 125.347656 L 171.414062 104.546875 C 170.699219 103.128906 169.804688 101.832031 168.726562 100.664062 C 167.652344 99.492188 166.4375 98.488281 165.082031 97.65625 C 163.730469 96.820312 162.289062 96.1875 160.757812 95.753906 C 159.230469 95.320312 157.667969 95.105469 156.078125 95.105469 L 64.667969 95.105469 C 63.90625 95.105469 63.152344 95.179688 62.402344 95.328125 C 61.65625 95.476562 60.929688 95.695312 60.222656 95.988281 C 59.519531 96.28125 58.847656 96.640625 58.214844 97.0625 C 57.582031 97.488281 56.996094 97.96875 56.453125 98.507812 C 55.914062 99.046875 55.433594 99.632812 55.011719 100.269531 C 54.585938 100.902344 54.230469 101.570312 53.9375 102.277344 C 53.644531 102.980469 53.425781 103.707031 53.277344 104.457031 C 53.125 105.203125 53.050781 105.957031 53.050781 106.722656 L 53.050781 120.121094 C 53.050781 121.960938 53.464844 123.703125 54.296875 125.347656 L 122.925781 261.527344 L 128.726562 273.03125 C 129.242188 274.0625 129.894531 275.003906 130.675781 275.855469 C 131.457031 276.707031 132.335938 277.433594 133.320312 278.039062 C 134.304688 278.644531 135.351562 279.105469 136.460938 279.417969 C 137.570312 279.734375 138.703125 279.890625 139.859375 279.890625 C 141.011719 279.890625 142.144531 279.734375 143.257812 279.417969 C 144.367188 279.105469 145.414062 278.644531 146.398438 278.039062 C 147.378906 277.433594 148.261719 276.707031 149.042969 275.855469 C 149.824219 275.003906 150.472656 274.0625 150.992188 273.03125 L 156.792969 261.527344 L 186.726562 202.128906 L 203.660156 168.53125 L 225.421875 125.347656 L 240.664062 95.105469 Z M 168.472656 171.152344 L 142.203125 223.277344 C 141.980469 223.71875 141.65625 224.070312 141.234375 224.332031 C 140.8125 224.589844 140.355469 224.71875 139.859375 224.71875 C 139.363281 224.71875 138.902344 224.589844 138.480469 224.332031 C 138.058594 224.070312 137.734375 223.71875 137.511719 223.277344 L 90.078125 129.15625 C 89.976562 128.953125 89.902344 128.746094 89.855469 128.527344 C 89.808594 128.308594 89.789062 128.085938 89.800781 127.859375 C 89.808594 127.636719 89.847656 127.417969 89.914062 127.203125 C 89.976562 126.988281 90.070312 126.785156 90.1875 126.597656 C 90.304688 126.40625 90.445312 126.230469 90.605469 126.078125 C 90.769531 125.921875 90.949219 125.789062 91.144531 125.679688 C 91.339844 125.570312 91.546875 125.488281 91.761719 125.433594 C 91.980469 125.375 92.199219 125.347656 92.425781 125.347656 L 144.441406 125.347656 C 144.980469 125.347656 145.507812 125.421875 146.027344 125.566406 C 146.546875 125.714844 147.039062 125.929688 147.496094 126.210938 C 147.957031 126.496094 148.367188 126.835938 148.734375 127.234375 C 149.097656 127.628906 149.402344 128.070312 149.644531 128.550781 L 168.472656 165.90625 C 168.886719 166.730469 169.097656 167.605469 169.097656 168.53125 C 169.097656 169.453125 168.886719 170.328125 168.472656 171.152344 Z M 168.472656 171.152344 "/></g></svg>