<?xml version="1.0" encoding="utf-8"?>
<!-- Generator: Adobe Illustrator 26.3.1, SVG Export Plug-In . SVG Version: 6.00 Build 0)  -->
<svg version="1.1" id="Layer_1" xmlns="http://www.w3.org/2000/svg" xmlns:xlink="http://www.w3.org/1999/xlink" x="0px" y="0px"
	 viewBox="0 0 542.3 126.9" style="enable-background:new 0 0 542.3 126.9;" xml:space="preserve">
<style type="text/css">
	.st0{fill:#FB275D;}
	.st1{fill:#FFCC00;}
	.st2{fill:#00CA72;}
	.st3{fill:#333333;}
</style>
<g>
	<path class="st0" d="M25.8,88.2c-3.7,0-7.1-1.9-8.9-5.1c-1.8-3.1-1.7-6.9,0.3-9.9l18.4-28.1c1.9-3.1,5.4-4.9,9.1-4.8
		c3.7,0.1,7.1,2.1,8.8,5.3s1.5,7-0.5,9.9L34.5,83.6C32.6,86.4,29.3,88.2,25.8,88.2z"/>
	<path class="st1" d="M57.1,88.2c-3.7,0-7.1-1.9-8.9-5c-1.8-3.1-1.7-6.9,0.3-9.9l18.4-28.1c1.9-3.1,5.3-5,9.1-4.9s7.1,2.1,8.8,5.3
		s1.5,7-0.7,10l-18.4,28C63.9,86.4,60.6,88.2,57.1,88.2L57.1,88.2z"/>
	<path class="st2" d="M87.7,88.2c5.6,0,10.2-4.6,10.2-10.2s-4.6-10.2-10.2-10.2S77.5,72.4,77.5,78C77.5,83.7,82,88.2,87.7,88.2z"/>
	<path class="st3" d="M171.9,42.8c5.6,0,10,1.7,13.3,5.1c3.3,3.4,5,8.1,5,14.1v26.2h-13.7V63.8c0-2.9-0.8-5.1-2.3-6.7
		c-1.5-1.6-3.6-2.4-6.3-2.4s-4.8,0.8-6.4,2.4c-1.5,1.6-2.2,3.8-2.2,6.7v24.4h-13.7V63.8c0-2.9-0.8-5.1-2.3-6.7
		c-1.5-1.6-3.6-2.4-6.3-2.4s-4.8,0.8-6.4,2.4c-1.5,1.6-2.2,3.8-2.2,6.7v24.4h-13.8V43.3h13.8v5.6c1.4-1.9,3.2-3.4,5.5-4.4
		c2.2-1.1,4.8-1.7,7.6-1.7c3.4,0,6.4,0.7,9,2.2c2.7,1.4,4.8,3.5,6.3,6.2c1.6-2.5,3.7-4.5,6.4-6C165.8,43.6,168.7,42.8,171.9,42.8z"
		/>
	<path class="st3" d="M217.8,88.8c-4.4,0-8.4-0.9-11.9-2.8s-6.2-4.6-8.3-8c-2-3.5-3-7.6-3-12.2s1-8.7,3.1-12.1
		c2-3.5,4.8-6.2,8.4-8.1c3.5-1.9,7.5-2.8,11.9-2.8s8.4,0.9,11.9,2.8c3.5,1.9,6.3,4.6,8.4,8.1c2,3.5,3.1,7.5,3.1,12.1
		s-1.1,8.7-3.1,12.2s-4.9,6.2-8.4,8C226.2,87.9,222.2,88.8,217.8,88.8z M217.8,76.9c2.6,0,4.9-1,6.7-2.9c1.9-1.9,2.8-4.7,2.8-8.3
		c0-3.6-0.9-6.3-2.7-8.3c-1.8-1.9-4-2.9-6.6-2.9c-2.7,0-4.9,1-6.7,2.9s-2.6,4.6-2.6,8.3c0,3.6,0.9,6.3,2.6,8.3
		C213,75.9,215.2,76.9,217.8,76.9z"/>
	<path class="st3" d="M273.5,42.8c5.3,0,9.4,1.7,12.5,5.1c3.2,3.4,4.8,8,4.8,14v26.2h-13.7V63.8c0-3-0.8-5.3-2.3-7
		c-1.6-1.7-3.6-2.5-6.3-2.5c-2.6,0-4.7,0.8-6.3,2.5c-1.6,1.7-2.3,4-2.3,7v24.4h-13.8V43.3h13.8v5.9c1.4-2,3.3-3.5,5.6-4.7
		C267.9,43.4,270.6,42.8,273.5,42.8z"/>
	<path class="st3" d="M295.2,65.6c0-4.6,0.9-8.7,2.6-12.1c1.8-3.5,4.2-6.2,7.2-8c3-1.9,6.4-2.8,10-2.8c3,0,5.6,0.6,8,1.9
		c2.5,1.2,4.4,2.9,5.8,5V28.7h13.8v59.5h-13.8v-6.4c-1.3,2.1-3.1,3.9-5.5,5.2c-2.4,1.3-5.1,1.9-8.3,1.9c-3.7,0-7-0.9-10-2.8
		s-5.4-4.6-7.2-8.1C296.1,74.3,295.2,70.2,295.2,65.6z M328.8,65.7c0-3.4-1-6.1-2.9-8.1s-4.2-3-6.9-3c-2.7,0-5.1,1-7,3
		c-1.9,1.9-2.8,4.6-2.8,8s0.9,6.2,2.8,8.2s4.3,3,7,3s5-1,6.9-3C327.9,71.8,328.8,69.2,328.8,65.7z"/>
	<path class="st3" d="M347.4,65.6c0-4.6,0.9-8.7,2.6-12.1c1.8-3.5,4.2-6.2,7.2-8c3-1.9,6.4-2.8,10-2.8c3.2,0,5.9,0.6,8.3,1.9
		c2.4,1.3,4.3,3,5.5,5.1v-6.4h13.8v44.9H381v-6.3c-1.3,2.1-3.2,3.8-5.6,5.1c-2.4,1.3-5.1,1.9-8.3,1.9c-3.6,0-7-0.9-10-2.8
		s-5.4-4.6-7.2-8.1C348.2,74.3,347.4,70.2,347.4,65.6z M381,65.7c0-3.4-1-6.1-2.9-8.1s-4.2-3-6.9-3c-2.7,0-5.1,1-7,3
		c-1.9,1.9-2.8,4.6-2.8,8s0.9,6.2,2.8,8.2s4.3,3,7,3s5-1,6.9-3C380,71.8,381,69.2,381,65.7z"/>
	<path class="st3" d="M448.1,43.3L420,109.5h-14.8l10.3-22.8l-18.3-43.4h15.4l10.4,28l10.3-28.1L448.1,43.3L448.1,43.3z"/>
	<path class="st3" d="M439.8,88.7c-1.2,0-2.2-0.4-3.1-1.1c-0.8-0.8-1.2-1.7-1.2-2.9c0-1.1,0.4-2.1,1.2-2.8c0.8-0.8,1.8-1.2,3.1-1.2
		c1.2,0,2.2,0.4,3,1.2c0.8,0.7,1.2,1.7,1.2,2.8c0,1.1-0.4,2.1-1.2,2.9C442,88.3,441,88.7,439.8,88.7z"/>
	<path class="st3" d="M449.7,78.3c0-2.1,0.4-3.9,1.3-5.5s2-2.8,3.5-3.6c1.5-0.9,3.2-1.3,5.2-1.3c2.5,0,4.6,0.6,6.2,1.9
		c1.6,1.2,2.8,3,3.3,5.2h-5.5c-0.3-0.9-0.8-1.6-1.5-2c-0.7-0.5-1.5-0.8-2.5-0.8c-1.5,0-2.6,0.5-3.5,1.6c-0.9,1-1.3,2.5-1.3,4.5
		c0,1.9,0.4,3.4,1.3,4.5c0.9,1,2,1.6,3.5,1.6c2.1,0,3.4-0.9,4-2.8h5.5c-0.6,2.2-1.7,3.9-3.3,5.2s-3.7,1.9-6.2,1.9
		c-1.9,0-3.7-0.4-5.2-1.3s-2.7-2.1-3.5-3.6C450.1,82.2,449.7,80.3,449.7,78.3z"/>
	<path class="st3" d="M481.1,88.7c-1.9,0-3.7-0.4-5.2-1.3s-2.8-2.1-3.7-3.7c-0.9-1.6-1.3-3.4-1.3-5.5s0.5-3.9,1.4-5.5
		s2.2-2.8,3.8-3.6c1.6-0.9,3.3-1.3,5.3-1.3s3.7,0.4,5.3,1.3c1.6,0.8,2.8,2.1,3.7,3.6c0.9,1.6,1.4,3.4,1.4,5.5s-0.5,3.9-1.4,5.5
		s-2.2,2.8-3.8,3.7C484.9,88.2,483.1,88.7,481.1,88.7z M481.1,84.2c0.9,0,1.8-0.2,2.6-0.7c0.8-0.5,1.5-1.1,2-2s0.7-2,0.7-3.3
		c0-1.9-0.5-3.4-1.5-4.4s-2.2-1.6-3.7-1.6s-2.7,0.5-3.7,1.6c-1,1-1.5,2.5-1.5,4.4s0.5,3.4,1.4,4.4C478.5,83.7,479.7,84.2,481.1,84.2
		z"/>
	<path class="st3" d="M519.7,67.9c2.5,0,4.5,0.8,6,2.3s2.3,3.6,2.3,6.3v11.8h-5.1V77.2c0-1.6-0.4-2.8-1.2-3.6
		c-0.8-0.8-1.9-1.3-3.3-1.3c-1.4,0-2.5,0.4-3.3,1.3c-0.8,0.8-1.2,2-1.2,3.6v11.1h-5.1V77.2c0-1.6-0.4-2.8-1.2-3.6
		c-0.8-0.8-1.9-1.3-3.3-1.3s-2.5,0.4-3.4,1.3c-0.8,0.8-1.2,2-1.2,3.6v11.1h-5.1V68.2h5.1v2.4c0.6-0.8,1.5-1.5,2.5-2s2.2-0.7,3.4-0.7
		c1.6,0,3,0.3,4.2,1s2.2,1.6,2.9,2.8c0.7-1.2,1.6-2.1,2.8-2.8C516.9,68.2,518.3,67.9,519.7,67.9z"/>
</g>
</svg>
